<svg
  version="1.1"
  id="icons"
  xmlns="http://www.w3.org/2000/svg"
  x="0"
  y="0"
  viewBox="0 0 64 64"
  style="enable-background: new 0 0 64 64"
  xml:space="preserve"
  
>
  <style>
    .st0 {
      fill: #5edfc5;
    }
    .st1 {
      fill: none;
      stroke: #414042;
      stroke-miterlimit: 10;
    }
    .st2 {
      fill: #d1d3d4;
    }
    .st3 {
      fill: #f1f2f2;
    }
    .st4 {
      fill: #fff;
    }
    .st5 {
      display: none;
    }
    .st6 {
      fill: #f5ab35;
    }
    .st6,
    .st7 {
      display: inline;
    }
    .st8 {
      fill: #414042;
    }
    .st9 {
      display: inline;
      fill: none;
      stroke: #414042;
      stroke-miterlimit: 10;
    }
    .st10 {
      fill: #36d7b7;
    }
    .st11,
    .st12 {
      display: inline;
      fill: #d1d3d4;
    }
    .st12 {
      fill: #fff;
    }
    .st13,
    .st14,
    .st15 {
      display: inline;
      fill: #f1f2f2;
    }
    .st14,
    .st15 {
      fill: #36d7b7;
    }
    .st15 {
      fill: #e6e7e8;
    }
    .st16 {
      fill: #a7a9ac;
    }
    .st17,
    .st18 {
      fill: none;
      stroke: #414042;
      stroke-miterlimit: 10;
    }
    .st17 {
      display: inline;
      stroke-dasharray: 1;
    }
    .st18 {
      stroke-linecap: round;
    }
    .st19 {
      fill: #939598;
    }
    .st21 {
      display: inline;
      fill: none;
      stroke: #bcbec0;
      stroke-miterlimit: 10;
    }
    .st24 {
      fill: #f5ab35;
    }
    .st26 {
      fill: #e6e7e8;
    }
    .st28,
    .st31,
    .st33 {
      display: inline;
      fill: #f7bc5d;
    }
    .st31,
    .st33 {
      fill: #939598;
    }
    .st33 {
      fill: #a7a9ac;
    }
    .st34,
    .st35,
    .st40 {
      display: inline;
      fill: #414042;
    }
    .st35,
    .st40 {
      fill: #29a189;
    }
    .st40 {
      fill: none;
      stroke: #414042;
      stroke-linecap: round;
      stroke-miterlimit: 10;
    }
    .st41 {
      fill: #bcbec0;
    }
  </style>
  <g id="XMLID_111_">
    <g id="XMLID_59_">
      <path
        id="XMLID_64_"
        class="st0"
        d="M49.8 47.3c0-.4-.3-.8-.8-.8-.1 0-.2 0-.3.1-.1-.3-.4-.5-.8-.6v-.2c0-.7-.6-1.3-1.3-1.3-.3 0-.6.1-.9.3-.1-1.2-1.1-2.2-2.4-2.2-1.1 0-2 .7-2.3 1.7h-.3c-.8 0-1.4.5-1.6 1.2-.2-.1-.4-.1-.5-.1-.8 0-1.5.7-1.5 1.5 0 .3.1.5.2.7h12.2c.3 0 .3-.2.3-.3z"
      />
      <path id="XMLID_61_" class="st1" d="M37.5 47.7H45" />
      <path id="XMLID_60_" class="st1" d="M47 47.7h-1.6" />
    </g>
    <g id="XMLID_51_">
      <path
        id="XMLID_67_"
        class="st0"
        d="M43.8 25c0-.3-.3-.6-.6-.6-.1 0-.2 0-.3.1-.1-.2-.3-.4-.6-.5v-.2c0-.6-.5-1-1-1-.3 0-.5.1-.7.3-.1-1-.9-1.8-1.9-1.8-.9 0-1.6.6-1.8 1.4h-.3c-.6 0-1.1.4-1.3 1-.1-.1-.3-.1-.4-.1-.7 0-1.2.5-1.2 1.2 0 .2.1.4.2.6h9.8c0-.2.1-.3.1-.4z"
      />
      <path id="XMLID_66_" class="st1" d="M33.9 25.3h6" />
      <path id="XMLID_65_" class="st1" d="M41.5 25.3h-1.3" />
    </g>
    <g id="XMLID_13_">
      <path
        id="XMLID_54_"
        class="st0"
        d="M24.8 43.4c0-.4-.3-.7-.7-.7-.1 0-.2 0-.3.1-.1-.3-.4-.5-.7-.5v-.2c0-.7-.5-1.2-1.2-1.2-.3 0-.6.1-.8.3-.1-1.1-1-2-2.2-2-1 0-1.8.7-2.1 1.6h-.3c-.7 0-1.3.5-1.4 1.1-.2-.1-.3-.1-.5-.1-.8 0-1.4.6-1.4 1.4 0 .3.1.5.2.7h11.3c.1-.2.1-.3.1-.5z"
      />
      <path id="XMLID_53_" class="st1" d="M13.4 43.8h6.9" />
      <path id="XMLID_47_" class="st1" d="M22.2 43.8h-1.5" />
    </g>
    <g id="XMLID_1009_">
      <path id="XMLID_1013_" class="st1" d="M30.4 40.9h.8" />
      <path id="XMLID_1012_" class="st1" d="M32.4 40.9h.8" />
      <path id="XMLID_1011_" class="st1" d="M31.8 42.3v-.8" />
      <path id="XMLID_1010_" class="st1" d="M31.8 40.2v-.7" />
    </g>
    <g id="XMLID_56_">
      <path id="XMLID_93_" class="st1" d="M34.7 16.2h.8" />
      <path id="XMLID_92_" class="st1" d="M36.8 16.2h.8" />
      <path id="XMLID_63_" class="st1" d="M36.2 17.6v-.8" />
      <path id="XMLID_62_" class="st1" d="M36.2 15.6v-.8" />
    </g>
    <g id="XMLID_68_">
      <path id="XMLID_72_" class="st1" d="M22 47.9h.7" />
      <path id="XMLID_71_" class="st1" d="M23.9 47.9h.7" />
      <path id="XMLID_70_" class="st1" d="M23.3 49.2v-.7" />
      <path id="XMLID_69_" class="st1" d="M23.3 47.3v-.7" />
    </g>
    <g id="XMLID_78_">
      <path id="XMLID_82_" class="st1" d="M47.7 23.8h.9" />
      <path id="XMLID_81_" class="st1" d="M49.9 23.8h.9" />
      <path id="XMLID_80_" class="st1" d="M49.2 25.3v-.9" />
      <path id="XMLID_79_" class="st1" d="M49.2 23.1v-.9" />
    </g>
    <g id="XMLID_83_">
      <path id="XMLID_87_" class="st1" d="M21.8 22.2h.8" />
      <path id="XMLID_86_" class="st1" d="M24 22.2h.8" />
      <path id="XMLID_85_" class="st1" d="M23.3 23.8v-.9" />
      <path id="XMLID_84_" class="st1" d="M23.3 21.6v-.9" />
    </g>
    <g id="XMLID_73_">
      <path id="XMLID_77_" class="st1" d="M16.4 36h1" />
      <path id="XMLID_76_" class="st1" d="M19 36h1" />
      <path id="XMLID_75_" class="st1" d="M18.2 37.8v-1" />
      <path id="XMLID_74_" class="st1" d="M18.2 35.2v-.9" />
    </g>
    <path id="XMLID_91_" class="st2" d="M38.7 42.3h.1l3.6-8.7-27.2-10.3z" />
    <path id="XMLID_90_" class="st2" d="m37.5 34.4 1.3 7.4-.1.9-18.2-14.5z" />
    <path id="XMLID_89_" class="st3" d="m15.2 23.3 11.1 15.2v.1l11.2-4.1z" />
    <path id="XMLID_88_" class="st4" d="m42.4 33.7 8.3-3.8v-.1l-35.5-6.5z" />
    <path
      id="XMLID_46_"
      class="st1"
      d="m50.6 29.9-8.2 3.7-3.6 8.5h-.1l-1.2-7.6h-.1l-10.9 4c-.2.1-.3 0-.4-.1l-10.8-15s0-.1.1-.1l35.2 6.6z"
    />
  </g>
</svg>
